<?xml version="1.0" encoding="UTF-8"?>
<svg id="Camada_1" data-name="Camada 1" xmlns="http://www.w3.org/2000/svg" viewBox="0 0 382.11 208.4">
  <defs>
    <style>
      .cls-1 {
        fill: #fff;
      }
    </style>
  </defs>
  <path class="cls-1" d="M159.9,208.4l23.7-17.62c8.47-9.68,17.28-18.91,22.98-30.63l78.88-.08c54.12-8.29,65.96-83.09,15.24-105.67-65.35-29.08-85.51,57.73-109.61,98.53C133.89,249.75-7.53,205.21.31,94.15,4.17,39.47,50.67,3.39,103.04.61c36.68-1.95,75.1,1.54,111.95.06-18.56,12.93-33.3,27.99-44.75,47.63-36.28,4.73-84.27-11.51-110,22-44.03,57.35,46.43,134.23,93.37,49.76,28.24-50.82,40.01-107.85,108.18-117.93,95.06-14.05,157.48,96.35,95.49,170.09-13.68,16.28-45.44,36.19-67.11,36.19h-130.27Z"/>
</svg>