<?xml version="1.0" encoding="UTF-8"?>
<svg id="Camada_1" data-name="Camada 1" xmlns="http://www.w3.org/2000/svg" xmlns:xlink="http://www.w3.org/1999/xlink" viewBox="-10 -6 850 214">
  <defs>
    <style>
      .cls-1 {
        clip-path: url(#clippath-6);
      }

      .cls-2 {
        clip-path: url(#clippath-7);
      }

      .cls-3 {
        clip-path: url(#clippath-4);
      }

      .cls-4 {
        clip-path: url(#clippath-9);
      }

      .cls-5 {
        clip-path: url(#clippath-10);
      }

      .cls-6 {
        fill: #fff;
      }

      .cls-7 {
        clip-path: url(#clippath-11);
      }

      .cls-8 {
        clip-path: url(#clippath-1);
      }

      .cls-9 {
        clip-path: url(#clippath-5);
      }

      .cls-10 {
        clip-path: url(#clippath-8);
      }

      .cls-11 {
        clip-path: url(#clippath-3);
      }

      .cls-12 {
        clip-path: url(#clippath-2);
      }
    </style>
    <clipPath id="clippath-1">
      <path class="cls-6" d="M405.82,95.45c.7,4.96,2.08,8.68,4.14,11.13,3.76,4.47,10.21,6.71,19.35,6.71,5.47,0,9.91-.59,13.32-1.77,6.47-2.26,9.71-6.46,9.71-12.61,0-3.59-1.59-6.36-4.76-8.33-3.17-1.92-8.2-3.61-15.09-5.09l-11.77-2.58c-11.56-2.56-19.51-5.33-23.83-8.33-7.32-5.01-10.99-12.85-10.99-23.52,0-9.73,3.58-17.82,10.75-24.26,7.17-6.44,17.69-9.66,31.57-9.66,11.59,0,21.48,3.04,29.67,9.1,8.18,6.07,12.48,14.88,12.87,26.43h-21.82c-.4-6.54-3.33-11.18-8.77-13.93-3.63-1.82-8.14-2.73-13.53-2.73-6,0-10.78,1.18-14.36,3.54-3.58,2.36-5.37,5.65-5.37,9.88,0,3.88,1.76,6.78,5.29,8.7,2.27,1.28,7.08,2.78,14.44,4.5l19.07,4.5c8.36,1.97,14.62,4.6,18.79,7.89,6.48,5.11,9.72,12.51,9.72,22.19s-3.84,18.17-11.51,24.74-18.52,9.84-32.53,9.84-25.56-3.23-33.76-9.7c-8.2-6.46-12.29-15.35-12.29-26.65h21.68Z"/>
    </clipPath>
    <clipPath id="clippath-2">
      <path class="cls-6" d="M510.07,39.05h-21.31v-19.39h21.31v19.39ZM488.76,48.63h21.31v80.36h-21.31V48.63Z"/>
    </clipPath>
    <clipPath id="clippath-3">
      <path class="cls-6" d="M570.17,48.56c5.1,2.11,9.23,6,12.37,11.65v-11.58h20.5v76.23c0,10.37-1.75,18.19-5.23,23.45-6,9.04-17.5,13.57-34.5,13.57-10.27,0-18.65-2.02-25.14-6.05-6.49-4.03-10.08-10.05-10.76-18.06h22.86c.59,2.46,1.55,4.23,2.88,5.31,2.26,1.92,6.07,2.88,11.43,2.88,7.57,0,12.63-2.53,15.19-7.59,1.67-3.24,2.51-8.7,2.51-16.37v-5.16c-2.02,3.44-4.18,6.02-6.49,7.74-4.18,3.2-9.61,4.79-16.29,4.79-10.32,0-18.57-3.62-24.74-10.87-6.17-7.25-9.25-17.07-9.25-29.45s2.97-21.98,8.91-30.12c5.94-8.13,14.36-12.2,25.26-12.2,4.03,0,7.53.62,10.53,1.84ZM577.33,106.18c3.38-3.71,5.07-9.62,5.07-17.73,0-7.62-1.6-13.42-4.81-17.4-3.21-3.98-7.5-5.97-12.88-5.97-7.34,0-12.41,3.47-15.2,10.4-1.47,3.69-2.2,8.23-2.2,13.64,0,4.67.78,8.82,2.35,12.46,2.84,6.78,7.93,10.17,15.27,10.17,4.89,0,9.03-1.85,12.41-5.57Z"/>
    </clipPath>
    <clipPath id="clippath-4">
      <path class="cls-6" d="M687.46,53.24c5.26,4.35,7.89,11.56,7.89,21.64v54.12h-21.53v-48.88c0-4.23-.56-7.47-1.68-9.73-2.05-4.13-5.95-6.19-11.71-6.19-7.08,0-11.93,3.02-14.56,9.07-1.37,3.2-2.05,7.27-2.05,12.24v43.5h-21.01V48.78h20.35v11.72c2.69-4.13,5.24-7.1,7.64-8.92,4.31-3.24,9.76-4.87,16.37-4.87,8.27,0,15.04,2.17,20.3,6.52Z"/>
    </clipPath>
    <clipPath id="clippath-5">
      <path class="cls-6" d="M746.72,80.11c3.91-.49,6.71-1.11,8.39-1.84,3.02-1.28,4.53-3.27,4.53-5.97,0-3.29-1.16-5.57-3.48-6.82-2.32-1.25-5.72-1.88-10.2-1.88-5.03,0-8.59,1.23-10.69,3.69-1.5,1.82-2.49,4.28-2.99,7.37h-20.27c.44-7.03,2.42-12.8,5.92-17.33,5.58-7.08,15.15-10.62,28.73-10.62,8.84,0,16.68,1.75,23.55,5.23,6.86,3.49,10.29,10.08,10.29,19.76v36.86c0,2.56.05,5.65.15,9.29.15,2.75.56,4.62,1.25,5.6.69.98,1.72,1.79,3.1,2.43v3.1h-22.86c-.64-1.62-1.08-3.14-1.33-4.57-.25-1.42-.44-3.05-.59-4.87-2.92,3.15-6.28,5.83-10.09,8.04-4.55,2.6-9.69,3.91-15.43,3.91-7.32,0-13.36-2.08-18.13-6.23-4.77-4.15-7.16-10.04-7.16-17.66,0-9.88,3.84-17.03,11.51-21.46,4.21-2.41,10.4-4.13,18.57-5.16l7.2-.88ZM759.56,89.92c-1.35.84-2.7,1.51-4.07,2.03-1.37.52-3.25,1-5.64,1.44l-4.78.88c-4.48.79-7.7,1.75-9.66,2.88-3.31,1.92-4.96,4.89-4.96,8.92,0,3.59,1.01,6.18,3.03,7.78,2.02,1.6,4.48,2.4,7.37,2.4,4.59,0,8.82-1.33,12.69-3.98s5.88-7.49,6.03-14.52v-7.81Z"/>
    </clipPath>
    <clipPath id="clippath-6">
      <path class="cls-6" d="M629.29,169.17c.09,1.58.46,2.86,1.12,3.84,1.25,1.84,3.45,2.77,6.61,2.77,1.41,0,2.7-.2,3.86-.61,2.25-.78,3.37-2.18,3.37-4.21,0-1.51-.47-2.59-1.42-3.24-.96-.63-2.46-1.18-4.51-1.65l-3.77-.85c-2.46-.56-4.21-1.17-5.23-1.84-1.77-1.16-2.65-2.9-2.65-5.21,0-2.5.87-4.55,2.6-6.16,1.73-1.6,4.18-2.41,7.35-2.41,2.92,0,5.39.7,7.43,2.11s3.06,3.66,3.06,6.75h-3.54c-.19-1.49-.59-2.63-1.21-3.43-1.15-1.45-3.1-2.18-5.85-2.18-2.22,0-3.82.47-4.79,1.4-.97.93-1.46,2.02-1.46,3.26,0,1.36.57,2.36,1.71,2.99.74.4,2.43.91,5.06,1.51l3.9.89c1.88.43,3.33,1.02,4.36,1.76,1.77,1.3,2.65,3.19,2.65,5.66,0,3.08-1.12,5.28-3.36,6.61-2.24,1.33-4.85,1.99-7.81,1.99-3.46,0-6.17-.88-8.12-2.65-1.96-1.75-2.92-4.14-2.88-7.14h3.54Z"/>
    </clipPath>
    <clipPath id="clippath-7">
      <path class="cls-6" d="M675.85,150.32v3.31h-9.38v24.51h-3.83v-24.51h-9.38v-3.31h22.58Z"/>
    </clipPath>
    <clipPath id="clippath-8">
      <path class="cls-6" d="M686.3,150.32v17.2c0,2.02.38,3.7,1.14,5.04,1.12,2.02,3.02,3.03,5.68,3.03,3.19,0,5.37-1.09,6.52-3.28.62-1.19.93-2.78.93-4.79v-17.2h3.83v15.63c0,3.42-.46,6.05-1.38,7.9-1.69,3.36-4.89,5.04-9.58,5.04s-7.89-1.68-9.56-5.04c-.92-1.84-1.38-4.48-1.38-7.9v-15.63h3.83Z"/>
    </clipPath>
    <clipPath id="clippath-9">
      <path class="cls-6" d="M713.3,150.32h11.27c3.83,0,6.79,1.36,8.9,4.07,1.88,2.45,2.82,5.59,2.82,9.41,0,2.96-.56,5.62-1.67,8.01-1.96,4.22-5.32,6.33-10.1,6.33h-11.23v-27.82ZM723.81,174.93c1.28,0,2.32-.13,3.14-.4,1.46-.49,2.66-1.44,3.6-2.84.75-1.12,1.28-2.56,1.61-4.32.19-1.05.28-2.02.28-2.92,0-3.45-.68-6.12-2.05-8.03-1.37-1.91-3.58-2.86-6.62-2.86h-6.69v21.36h6.72Z"/>
    </clipPath>
    <clipPath id="clippath-10">
      <path class="cls-6" d="M744.9,150.32h3.81v27.82h-3.81v-27.82Z"/>
    </clipPath>
    <clipPath id="clippath-11">
      <path class="cls-6" d="M780.66,154.3c1.84,2.46,2.77,5.61,2.77,9.45,0,4.15-1.05,7.61-3.16,10.36-2.47,3.23-6,4.85-10.59,4.85-4.28,0-7.65-1.41-10.09-4.24-2.18-2.73-3.28-6.17-3.28-10.34,0-3.76.93-6.98,2.8-9.66,2.4-3.43,5.95-5.15,10.64-5.15s8.55,1.58,10.91,4.74ZM777.33,172.02c1.48-2.38,2.22-5.12,2.22-8.21,0-3.27-.86-5.9-2.57-7.9s-4.05-2.99-7.02-2.99-5.23.99-7.05,2.96c-1.82,1.98-2.73,4.89-2.73,8.74,0,3.08.78,5.68,2.34,7.79,1.56,2.12,4.09,3.17,7.59,3.17s5.72-1.19,7.21-3.57Z"/>
    </clipPath>
  </defs>
  <g transform="translate(0, 0) scale(0.95)">
    <path class="cls-6" d="M159.9,208.4l23.7-17.62c8.47-9.68,17.28-18.91,22.98-30.63l78.88-.08c54.12-8.29,65.96-83.09,15.24-105.67-65.35-29.08-85.51,57.73-109.61,98.53C133.89,249.75-7.53,205.21.31,94.15,4.17,39.47,50.67,3.39,103.04.61c36.68-1.95,75.1,1.54,111.95.06-18.56,12.93-33.3,27.99-44.75,47.63-36.28,4.73-84.27-11.51-110,22-44.03,57.35,46.43,134.23,93.37,49.76,28.24-50.82,40.01-107.85,108.18-117.93,95.06-14.05,157.48,96.35,95.49,170.09-13.68,16.28-45.44,36.19-67.11,36.19h-130.27Z"/>
  </g>
  <g>
    <g>
      <path class="cls-6" d="M405.82,95.45c.7,4.96,2.08,8.68,4.14,11.13,3.76,4.47,10.21,6.71,19.35,6.71,5.47,0,9.91-.59,13.32-1.77,6.47-2.26,9.71-6.46,9.71-12.61,0-3.59-1.59-6.36-4.76-8.33-3.17-1.92-8.2-3.61-15.09-5.09l-11.77-2.58c-11.56-2.56-19.51-5.33-23.83-8.33-7.32-5.01-10.99-12.85-10.99-23.52,0-9.73,3.58-17.82,10.75-24.26,7.17-6.44,17.69-9.66,31.57-9.66,11.59,0,21.48,3.04,29.67,9.1,8.18,6.07,12.48,14.88,12.87,26.43h-21.82c-.4-6.54-3.33-11.18-8.77-13.93-3.63-1.82-8.14-2.73-13.53-2.73-6,0-10.78,1.18-14.36,3.54-3.58,2.36-5.37,5.65-5.37,9.88,0,3.88,1.76,6.78,5.29,8.7,2.27,1.28,7.08,2.78,14.44,4.5l19.07,4.5c8.36,1.97,14.62,4.6,18.79,7.89,6.48,5.11,9.72,12.51,9.72,22.19s-3.84,18.17-11.51,24.74-18.52,9.84-32.53,9.84-25.56-3.23-33.76-9.7c-8.2-6.46-12.29-15.35-12.29-26.65h21.68Z"/>
      <g class="cls-8">
        <polygon class="cls-6" points="384.49 17.15 384.15 18.46 384.15 17.15 384.49 17.15"/>
        <polygon class="cls-6" points="394.23 17.15 384.15 55.14 384.15 18.46 384.49 17.15 394.23 17.15"/>
        <polygon class="cls-6" points="403.97 17.15 384.15 91.82 384.15 55.14 394.23 17.15 403.97 17.15"/>
        <polygon class="cls-6" points="413.71 17.15 384.9 125.64 384.15 125.44 384.15 91.82 403.97 17.15 413.71 17.15"/>
        <polygon class="cls-6" points="423.45 17.15 394 128.05 384.9 125.64 413.71 17.15 423.45 17.15"/>
        <polygon class="cls-6" points="433.19 17.15 403.1 130.47 394 128.05 423.45 17.15 433.19 17.15"/>
        <polygon class="cls-6" points="442.93 17.15 412.49 131.8 408.1 131.8 403.1 130.47 433.19 17.15 442.93 17.15"/>
        <polygon class="cls-6" points="447.62 17.15 452.34 18.4 422.23 131.8 412.49 131.8 442.93 17.15 447.62 17.15"/>
        <polygon class="cls-6" points="452.34 18.4 461.43 20.82 431.97 131.8 422.23 131.8 452.34 18.4"/>
        <polygon class="cls-6" points="461.43 20.82 470.53 23.24 441.71 131.8 431.97 131.8 461.43 20.82"/>
        <polygon class="cls-6" points="470.53 23.24 474.24 24.22 474.24 45.95 451.45 131.8 441.71 131.8 470.53 23.24"/>
        <polygon class="cls-6" points="474.24 82.63 461.19 131.8 451.45 131.8 474.24 45.95 474.24 82.63"/>
        <polygon class="cls-6" points="474.24 119.31 470.92 131.8 461.19 131.8 474.24 82.63 474.24 119.31"/>
        <polygon class="cls-6" points="470.92 131.8 474.24 119.31 474.24 131.8 470.92 131.8"/>
      </g>
    </g>
    <g>
      <path class="cls-6" d="M510.07,39.05h-21.31v-19.39h21.31v19.39ZM488.76,48.63h21.31v80.36h-21.31V48.63Z"/>
      <g class="cls-12">
        <polygon class="cls-6" points="493.01 48.63 488.76 64.61 488.76 48.63 493.01 48.63"/>
        <polygon class="cls-6" points="502.75 48.63 488.76 101.29 488.76 64.61 493.01 48.63 502.75 48.63"/>
        <polygon class="cls-6" points="510.07 57.72 491.15 129 488.76 129 488.76 101.29 502.75 48.63 510.07 48.63 510.07 57.72"/>
        <polygon class="cls-6" points="510.07 94.4 500.89 129 491.15 129 510.07 57.72 510.07 94.4"/>
        <polygon class="cls-6" points="500.89 129 510.07 94.4 510.07 129 500.89 129"/>
        <polygon class="cls-6" points="490.96 19.66 488.76 27.93 488.76 19.66 490.96 19.66"/>
        <polygon class="cls-6" points="500.7 19.66 495.55 39.05 488.76 39.05 488.76 27.93 490.96 19.66 500.7 19.66"/>
        <polygon class="cls-6" points="510.07 21.04 505.29 39.05 495.55 39.05 500.7 19.66 510.07 19.66 510.07 21.04"/>
        <polygon class="cls-6" points="505.29 39.05 510.07 21.04 510.07 39.05 505.29 39.05"/>
      </g>
    </g>
    <g>
      <path class="cls-6" d="M570.17,48.56c5.1,2.11,9.23,6,12.37,11.65v-11.58h20.5v76.23c0,10.37-1.75,18.19-5.23,23.45-6,9.04-17.5,13.57-34.5,13.57-10.27,0-18.65-2.02-25.14-6.05-6.49-4.03-10.08-10.05-10.76-18.06h22.86c.59,2.46,1.55,4.23,2.88,5.31,2.26,1.92,6.07,2.88,11.43,2.88,7.57,0,12.63-2.53,15.19-7.59,1.67-3.24,2.51-8.7,2.51-16.37v-5.16c-2.02,3.44-4.18,6.02-6.49,7.74-4.18,3.2-9.61,4.79-16.29,4.79-10.32,0-18.57-3.62-24.74-10.87-6.17-7.25-9.25-17.07-9.25-29.45s2.97-21.98,8.91-30.12c5.94-8.13,14.36-12.2,25.26-12.2,4.03,0,7.53.62,10.53,1.84ZM577.33,106.18c3.38-3.71,5.07-9.62,5.07-17.73,0-7.62-1.6-13.42-4.81-17.4-3.21-3.98-7.5-5.97-12.88-5.97-7.34,0-12.41,3.47-15.2,10.4-1.47,3.69-2.2,8.23-2.2,13.64,0,4.67.78,8.82,2.35,12.46,2.84,6.78,7.93,10.17,15.27,10.17,4.89,0,9.03-1.85,12.41-5.57Z"/>
      <g class="cls-11">
        <polygon class="cls-6" points="556.82 65.07 547.3 100.9 547.3 65.07 556.82 65.07"/>
        <polygon class="cls-6" points="566.56 65.07 554.16 111.74 549.79 111.74 547.3 111.08 547.3 100.9 556.82 65.07 566.56 65.07"/>
        <polygon class="cls-6" points="576.3 65.07 563.9 111.74 554.16 111.74 566.56 65.07 576.3 65.07"/>
        <polygon class="cls-6" points="577.88 65.07 582.4 66.27 582.4 78.77 573.64 111.74 563.9 111.74 576.3 65.07 577.88 65.07"/>
        <polygon class="cls-6" points="573.64 111.74 582.4 78.77 582.4 111.74 573.64 111.74"/>
        <polygon class="cls-6" points="532.47 46.72 525.48 73.05 525.48 46.72 532.47 46.72"/>
        <polygon class="cls-6" points="542.21 46.72 525.48 109.73 525.48 73.05 532.47 46.72 542.21 46.72"/>
        <polygon class="cls-6" points="551.95 46.72 525.48 146.41 525.48 109.73 542.21 46.72 551.95 46.72"/>
        <polygon class="cls-6" points="561.69 46.72 531.99 158.57 525.48 156.84 525.48 146.41 551.95 46.72 561.69 46.72"/>
        <polygon class="cls-6" points="571.43 46.72 541.09 160.99 531.99 158.57 561.69 46.72 571.43 46.72"/>
        <polygon class="cls-6" points="581.17 46.72 550.59 161.88 544.45 161.88 541.09 160.99 571.43 46.72 581.17 46.72"/>
        <polygon class="cls-6" points="590.91 46.72 560.33 161.88 550.59 161.88 581.17 46.72 590.91 46.72"/>
        <polygon class="cls-6" points="600.65 46.72 570.07 161.88 560.33 161.88 590.91 46.72 600.65 46.72"/>
        <polygon class="cls-6" points="603.04 74.39 579.81 161.88 570.07 161.88 600.65 46.72 603.04 46.72 603.04 74.39"/>
        <polygon class="cls-6" points="603.04 111.07 589.55 161.88 579.81 161.88 603.04 74.39 603.04 111.07"/>
        <polygon class="cls-6" points="603.04 147.75 599.29 161.88 589.55 161.88 603.04 111.07 603.04 147.75"/>
        <polygon class="cls-6" points="599.29 161.88 603.04 147.75 603.04 161.88 599.29 161.88"/>
      </g>
    </g>
    <g>
      <path class="cls-6" d="M687.46,53.24c5.26,4.35,7.89,11.56,7.89,21.64v54.12h-21.53v-48.88c0-4.23-.56-7.47-1.68-9.73-2.05-4.13-5.95-6.19-11.71-6.19-7.08,0-11.93,3.02-14.56,9.07-1.37,3.2-2.05,7.27-2.05,12.24v43.5h-21.01V48.78h20.35v11.72c2.69-4.13,5.24-7.1,7.64-8.92,4.31-3.24,9.76-4.87,16.37-4.87,8.27,0,15.04,2.17,20.3,6.52Z"/>
      <g class="cls-3">
        <polygon class="cls-6" points="629.87 46.72 622.8 73.33 622.8 46.72 629.87 46.72"/>
        <polygon class="cls-6" points="639.61 46.72 622.8 110.01 622.8 73.33 629.87 46.72 639.61 46.72"/>
        <polygon class="cls-6" points="649.35 46.72 627.5 129 622.8 129 622.8 110.01 639.61 46.72 649.35 46.72"/>
        <polygon class="cls-6" points="659.09 46.72 637.24 129 627.5 129 649.35 46.72 659.09 46.72"/>
        <polygon class="cls-6" points="668.83 46.72 646.98 129 637.24 129 659.09 46.72 668.83 46.72"/>
        <polygon class="cls-6" points="678.56 46.72 656.72 129 646.98 129 668.83 46.72 678.56 46.72"/>
        <polygon class="cls-6" points="683.22 46.72 687.97 47.98 666.46 129 656.72 129 678.56 46.72 683.22 46.72"/>
        <polygon class="cls-6" points="687.97 47.98 695.35 49.94 695.35 56.87 676.2 129 666.46 129 687.97 47.98"/>
        <polygon class="cls-6" points="695.35 93.55 685.94 129 676.2 129 695.35 56.87 695.35 93.55"/>
        <polygon class="cls-6" points="685.94 129 695.35 93.55 695.35 129 685.94 129"/>
      </g>
    </g>
    <g>
      <path class="cls-6" d="M746.72,80.11c3.91-.49,6.71-1.11,8.39-1.84,3.02-1.28,4.53-3.27,4.53-5.97,0-3.29-1.16-5.57-3.48-6.82-2.32-1.25-5.72-1.88-10.2-1.88-5.03,0-8.59,1.23-10.69,3.69-1.5,1.82-2.49,4.28-2.99,7.37h-20.27c.44-7.03,2.42-12.8,5.92-17.33,5.58-7.08,15.15-10.62,28.73-10.62,8.84,0,16.68,1.75,23.55,5.23,6.86,3.49,10.29,10.08,10.29,19.76v36.86c0,2.56.05,5.65.15,9.29.15,2.75.56,4.62,1.25,5.6.69.98,1.72,1.79,3.1,2.43v3.1h-22.86c-.64-1.62-1.08-3.14-1.33-4.57-.25-1.42-.44-3.05-.59-4.87-2.92,3.15-6.28,5.83-10.09,8.04-4.55,2.6-9.69,3.91-15.43,3.91-7.32,0-13.36-2.08-18.13-6.23-4.77-4.15-7.16-10.04-7.16-17.66,0-9.88,3.84-17.03,11.51-21.46,4.21-2.41,10.4-4.13,18.57-5.16l7.2-.88ZM759.56,89.92c-1.35.84-2.7,1.51-4.07,2.03-1.37.52-3.25,1-5.64,1.44l-4.78.88c-4.48.79-7.7,1.75-9.66,2.88-3.31,1.92-4.96,4.89-4.96,8.92,0,3.59,1.01,6.18,3.03,7.78,2.02,1.6,4.48,2.4,7.37,2.4,4.59,0,8.82-1.33,12.69-3.98s5.88-7.49,6.03-14.52v-7.81Z"/>
      <g class="cls-9">
        <polygon class="cls-6" points="735.27 89.92 730.44 108.1 730.44 89.92 735.27 89.92"/>
        <polygon class="cls-6" points="745.01 89.92 738.02 116.24 730.44 116.24 730.44 108.1 735.27 89.92 745.01 89.92"/>
        <polygon class="cls-6" points="754.75 89.92 747.76 116.24 738.02 116.24 745.01 89.92 754.75 89.92"/>
        <polygon class="cls-6" points="759.56 108.47 757.5 116.24 747.76 116.24 754.75 89.92 759.56 89.92 759.56 108.47"/>
        <polygon class="cls-6" points="757.5 116.24 759.56 108.47 759.56 116.24 757.5 116.24"/>
        <polygon class="cls-6" points="717.52 46.72 709.43 77.19 709.43 46.72 717.52 46.72"/>
        <polygon class="cls-6" points="727.26 46.72 709.43 113.88 709.43 77.19 717.52 46.72 727.26 46.72"/>
        <polygon class="cls-6" points="737 46.72 714.83 130.23 709.43 128.8 709.43 113.88 727.26 46.72 737 46.72"/>
        <polygon class="cls-6" points="746.74 46.72 724.23 131.5 719.61 131.5 714.83 130.23 737 46.72 746.74 46.72"/>
        <polygon class="cls-6" points="756.48 46.72 733.97 131.5 724.23 131.5 746.74 46.72 756.48 46.72"/>
        <polygon class="cls-6" points="764.57 46.72 766.11 47.13 743.71 131.5 733.97 131.5 756.48 46.72 764.57 46.72"/>
        <polygon class="cls-6" points="766.11 47.13 775.21 49.54 753.45 131.5 743.71 131.5 766.11 47.13"/>
        <polygon class="cls-6" points="775.21 49.54 784.31 51.96 763.19 131.5 753.45 131.5 775.21 49.54"/>
        <polygon class="cls-6" points="784.31 51.96 785 52.14 785 86.03 772.93 131.5 763.19 131.5 784.31 51.96"/>
        <polygon class="cls-6" points="785 122.71 782.67 131.5 772.93 131.5 785 86.03 785 122.71"/>
        <polygon class="cls-6" points="782.67 131.5 785 122.71 785 131.5 782.67 131.5"/>
      </g>
    </g>
  </g>
  <g>
    <g>
      <path class="cls-6" d="M629.29,169.17c.09,1.58.46,2.86,1.12,3.84,1.25,1.84,3.45,2.77,6.61,2.77,1.41,0,2.7-.2,3.86-.61,2.25-.78,3.37-2.18,3.37-4.21,0-1.51-.47-2.59-1.42-3.24-.96-.63-2.46-1.18-4.51-1.65l-3.77-.85c-2.46-.56-4.21-1.17-5.23-1.84-1.77-1.16-2.65-2.9-2.65-5.21,0-2.5.87-4.55,2.6-6.16,1.73-1.6,4.18-2.41,7.35-2.41,2.92,0,5.39.7,7.43,2.11s3.06,3.66,3.06,6.75h-3.54c-.19-1.49-.59-2.63-1.21-3.43-1.15-1.45-3.1-2.18-5.85-2.18-2.22,0-3.82.47-4.79,1.4-.97.93-1.46,2.02-1.46,3.26,0,1.36.57,2.36,1.71,2.99.74.4,2.43.91,5.06,1.51l3.9.89c1.88.43,3.33,1.02,4.36,1.76,1.77,1.3,2.65,3.19,2.65,5.66,0,3.08-1.12,5.28-3.36,6.61-2.24,1.33-4.85,1.99-7.81,1.99-3.46,0-6.17-.88-8.12-2.65-1.96-1.75-2.92-4.14-2.88-7.14h3.54Z"/>
      <g class="cls-1">
        <polygon class="cls-6" points="631.76 149.62 625.71 172.44 625.71 149.62 631.76 149.62"/>
        <polygon class="cls-6" points="641.5 149.62 633.71 178.96 625.71 178.96 625.71 172.44 631.76 149.62 641.5 149.62"/>
        <polygon class="cls-6" points="647.33 149.62 647.92 149.78 647.92 162.12 643.45 178.96 633.71 178.96 641.5 149.62 647.33 149.62"/>
        <polygon class="cls-6" points="643.45 178.96 647.92 162.12 647.92 178.96 643.45 178.96"/>
      </g>
    </g>
    <g>
      <path class="cls-6" d="M675.85,150.32v3.31h-9.38v24.51h-3.83v-24.51h-9.38v-3.31h22.58Z"/>
      <g class="cls-2">
        <polygon class="cls-6" points="660.79 150.32 653.5 177.79 653.27 177.73 653.27 150.32 660.79 150.32"/>
        <polygon class="cls-6" points="670.53 150.32 663.15 178.15 654.86 178.15 653.5 177.79 660.79 150.32 670.53 150.32"/>
        <polygon class="cls-6" points="675.85 166.98 672.89 178.15 663.15 178.15 670.53 150.32 675.85 150.32 675.85 166.98"/>
        <polygon class="cls-6" points="672.89 178.15 675.85 166.98 675.85 178.15 672.89 178.15"/>
      </g>
    </g>
    <g>
      <path class="cls-6" d="M686.3,150.32v17.2c0,2.02.38,3.7,1.14,5.04,1.12,2.02,3.02,3.03,5.68,3.03,3.19,0,5.37-1.09,6.52-3.28.62-1.19.93-2.78.93-4.79v-17.2h3.83v15.63c0,3.42-.46,6.05-1.38,7.9-1.69,3.36-4.89,5.04-9.58,5.04s-7.89-1.68-9.56-5.04c-.92-1.84-1.38-4.48-1.38-7.9v-15.63h3.83Z"/>
      <g class="cls-10">
        <polygon class="cls-6" points="690.01 150.32 682.47 178.72 682.47 150.32 690.01 150.32"/>
        <polygon class="cls-6" points="699.75 150.32 692.17 178.88 682.47 178.88 682.47 178.72 690.01 150.32 699.75 150.32"/>
        <polygon class="cls-6" points="704.39 169.55 701.91 178.88 692.17 178.88 699.75 150.32 704.39 150.32 704.39 169.55"/>
        <polygon class="cls-6" points="701.91 178.88 704.39 169.55 704.39 178.88 701.91 178.88"/>
      </g>
    </g>
    <g>
      <path class="cls-6" d="M713.3,150.32h11.27c3.83,0,6.79,1.36,8.9,4.07,1.88,2.45,2.82,5.59,2.82,9.41,0,2.96-.56,5.62-1.67,8.01-1.96,4.22-5.32,6.33-10.1,6.33h-11.23v-27.82ZM723.81,174.93c1.28,0,2.32-.13,3.14-.4,1.46-.49,2.66-1.44,3.6-2.84.75-1.12,1.28-2.56,1.61-4.32.19-1.05.28-2.02.28-2.92,0-3.45-.68-6.12-2.05-8.03-1.37-1.91-3.58-2.86-6.62-2.86h-6.69v21.36h6.72Z"/>
      <g class="cls-4">
        <polygon class="cls-6" points="718.37 153.56 717.09 158.4 717.09 153.56 718.37 153.56"/>
        <polygon class="cls-6" points="728.11 153.56 722.44 174.93 717.09 174.93 717.09 158.4 718.37 153.56 728.11 153.56"/>
        <polygon class="cls-6" points="732.45 173.91 732.18 174.93 722.44 174.93 728.11 153.56 732.45 153.56 732.45 173.91"/>
        <polygon class="cls-6" points="732.18 174.93 732.45 173.91 732.45 174.93 732.18 174.93"/>
        <polygon class="cls-6" points="719.23 150.32 713.3 172.66 713.3 150.32 719.23 150.32"/>
        <polygon class="cls-6" points="728.97 150.32 721.58 178.15 713.3 178.15 713.3 172.66 719.23 150.32 728.97 150.32"/>
        <polygon class="cls-6" points="736.19 150.32 736.29 150.35 736.29 159.43 731.32 178.15 721.58 178.15 728.97 150.32 736.19 150.32"/>
        <polygon class="cls-6" points="731.32 178.15 736.29 159.43 736.29 178.15 731.32 178.15"/>
      </g>
    </g>
    <g>
      <path class="cls-6" d="M744.9,150.32h3.81v27.82h-3.81v-27.82Z"/>
      <g class="cls-5">
        <polygon class="cls-6" points="748.45 150.32 744.9 163.68 744.9 150.32 748.45 150.32"/>
        <polygon class="cls-6" points="744.9 163.68 748.45 150.32 748.71 150.32 748.71 178.15 744.9 178.15 744.9 163.68"/>
      </g>
    </g>
    <g>
      <path class="cls-6" d="M780.66,154.3c1.84,2.46,2.77,5.61,2.77,9.45,0,4.15-1.05,7.61-3.16,10.36-2.47,3.23-6,4.85-10.59,4.85-4.28,0-7.65-1.41-10.09-4.24-2.18-2.73-3.28-6.17-3.28-10.34,0-3.76.93-6.98,2.8-9.66,2.4-3.43,5.95-5.15,10.64-5.15s8.55,1.58,10.91,4.74ZM777.33,172.02c1.48-2.38,2.22-5.12,2.22-8.21,0-3.27-.86-5.9-2.57-7.9s-4.05-2.99-7.02-2.99-5.23.99-7.05,2.96c-1.82,1.98-2.73,4.89-2.73,8.74,0,3.08.78,5.68,2.34,7.79,1.56,2.12,4.09,3.17,7.59,3.17s5.72-1.19,7.21-3.57Z"/>
      <g class="cls-7">
        <polygon class="cls-6" points="767.24 152.92 761.22 175.59 760.2 175.59 760.2 152.92 767.24 152.92"/>
        <polygon class="cls-6" points="776.98 152.92 770.96 175.59 761.22 175.59 767.24 152.92 776.98 152.92"/>
        <polygon class="cls-6" points="770.96 175.59 776.98 152.92 779.56 152.92 779.56 175.59 770.96 175.59"/>
        <polygon class="cls-6" points="758.39 149.57 756.3 157.44 756.3 149.57 758.39 149.57"/>
        <polygon class="cls-6" points="768.13 149.57 760.32 178.96 757.6 178.96 756.3 178.62 756.3 157.44 758.39 149.57 768.13 149.57"/>
        <polygon class="cls-6" points="777.87 149.57 770.06 178.96 760.32 178.96 768.13 149.57 777.87 149.57"/>
        <polygon class="cls-6" points="782.45 149.57 783.42 149.82 783.42 165.34 779.8 178.96 770.06 178.96 777.87 149.57 782.45 149.57"/>
        <polygon class="cls-6" points="779.8 178.96 783.42 165.34 783.42 178.96 779.8 178.96"/>
      </g>
    </g>
  </g>
</svg>